<?xml version='1.0' encoding='UTF-8'?>
<svg x="0px" y="0px" viewBox="0 0 32 32" version="1.1" xmlns="http://www.w3.org/2000/svg" xmlns:xlink="http://www.w3.org/1999/xlink" xml:space="preserve" id="Header" style="enable-background:new 0 0 32 32">
  <style type="text/css">
	.Black{fill:#727272;}
	.Yellow{fill:#FFB115;}
	.st0{opacity:0.75;}
</style>
  <path d="M25,2H5C4.5,2,4,2.5,4,3v24c0,0.5,0.5,1,1,1h20c0.5,0,1-0.5,1-1V3C26,2.5,25.5,2,25,2z M24,26H6V4h18V26z" class="Black" />
  <rect x="8" y="6" width="14" height="6" class="Yellow" />
  <g class="st0">
    <path d="M22,16H8v-2h14V16z M22,18H8v2h14V18z M22,22H8v2h14V22z" class="Black" />
  </g>
</svg>