<?xml version='1.0' encoding='UTF-8'?>
<svg x="0px" y="0px" viewBox="0 0 32 32" version="1.1" xmlns="http://www.w3.org/2000/svg" xmlns:xlink="http://www.w3.org/1999/xlink" xml:space="preserve" id="ReviewingPane" style="enable-background:new 0 0 32 32">
  <style type="text/css">
	.Yellow{fill:#FFB115;}
	.Black{fill:#727272;}
	.st0{opacity:0.5;}
</style>
  <g class="st0">
    <path d="M29,2H14v10h2V7.3L27.6,15L16,22.7V18h-2v10h15c0.5,0,1-0.5,1-1V3C30,2.5,29.5,2,29,2z" class="Black" />
  </g>
  <path d="M8,16h10v3l6-4l-6-4v3H8V16z" class="Black" />
  <path d="M6,18v-6h6V2H3C2.5,2,2,2.5,2,3v24c0,0.5,0.5,1,1,1h9V18H6z" class="Yellow" />
</svg>